<?xml version="1.0" encoding="UTF-8"?>
<svg xmlns="http://www.w3.org/2000/svg" xmlns:xlink="http://www.w3.org/1999/xlink" width="375pt" height="374.999991pt" viewBox="0 0 375 374.999991" version="1.2">
<defs>
<clipPath id="clip1">
  <path d="M 42 58 L 173 58 L 173 187 L 42 187 Z M 42 58 "/>
</clipPath>
<clipPath id="clip2">
  <path d="M 41.6875 55.410156 L 168.097656 38.761719 L 187.6875 187.476562 L 61.277344 204.125 Z M 41.6875 55.410156 "/>
</clipPath>
<clipPath id="clip3">
  <path d="M 41.6875 55.410156 L 168.097656 38.761719 L 187.6875 187.476562 L 61.277344 204.125 Z M 41.6875 55.410156 "/>
</clipPath>
<clipPath id="clip4">
  <path d="M 188 42 L 317 42 L 317 173 L 188 173 Z M 188 42 "/>
</clipPath>
<clipPath id="clip5">
  <path d="M 319.589844 41.6875 L 336.238281 168.097656 L 187.523438 187.6875 L 170.875 61.277344 Z M 319.589844 41.6875 "/>
</clipPath>
<clipPath id="clip6">
  <path d="M 319.589844 41.6875 L 336.238281 168.097656 L 187.523438 187.6875 L 170.875 61.277344 Z M 319.589844 41.6875 "/>
</clipPath>
<clipPath id="clip7">
  <path d="M 202 188 L 333 188 L 333 317 L 202 317 Z M 202 188 "/>
</clipPath>
<clipPath id="clip8">
  <path d="M 333.3125 319.589844 L 206.902344 336.238281 L 187.3125 187.523438 L 313.722656 170.875 Z M 333.3125 319.589844 "/>
</clipPath>
<clipPath id="clip9">
  <path d="M 333.3125 319.589844 L 206.902344 336.238281 L 187.3125 187.523438 L 313.722656 170.875 Z M 333.3125 319.589844 "/>
</clipPath>
<clipPath id="clip10">
  <path d="M 58 202 L 187 202 L 187 333 L 58 333 Z M 58 202 "/>
</clipPath>
<clipPath id="clip11">
  <path d="M 55.410156 333.3125 L 38.761719 206.902344 L 187.476562 187.3125 L 204.125 313.722656 Z M 55.410156 333.3125 "/>
</clipPath>
<clipPath id="clip12">
  <path d="M 55.410156 333.3125 L 38.761719 206.902344 L 187.476562 187.3125 L 204.125 313.722656 Z M 55.410156 333.3125 "/>
</clipPath>
</defs>
<g id="surface1">
<g clip-path="url(#clip1)" clip-rule="nonzero">
<g clip-path="url(#clip2)" clip-rule="nonzero">
<g clip-path="url(#clip3)" clip-rule="nonzero">
<path style=" stroke:none;fill-rule:nonzero;fill:rgb(55.688477%,79.60968%,100%);fill-opacity:1;" d="M 159.640625 175.988281 C 159.371094 176.21875 148.070312 169.730469 138.816406 154.84375 C 127.910156 137.234375 113.925781 107.808594 99.914062 90.828125 C 85.375 73.203125 71.542969 70.011719 71.183594 70.265625 C 70.929688 70.453125 83.367188 77.941406 97.691406 96.511719 C 110.59375 113.214844 123.53125 140.773438 133.898438 157.390625 C 143.40625 172.628906 154.847656 179.472656 154.613281 179.617188 C 130.011719 194.960938 90.753906 187.300781 75.085938 143.542969 C 58.328125 96.707031 65.328125 70.910156 42.351562 60.449219 C 42.351562 60.449219 95.84375 48.363281 134.355469 80.121094 C 172.871094 111.863281 183.570312 156.136719 159.640625 175.988281 "/>
</g>
</g>
</g>
<g clip-path="url(#clip4)" clip-rule="nonzero">
<g clip-path="url(#clip5)" clip-rule="nonzero">
<g clip-path="url(#clip6)" clip-rule="nonzero">
<path style=" stroke:none;fill-rule:nonzero;fill:rgb(55.288696%,74.899292%,23.139954%);fill-opacity:1;" d="M 199.011719 159.640625 C 198.78125 159.371094 205.269531 148.070312 220.15625 138.816406 C 237.765625 127.910156 267.191406 113.925781 284.171875 99.914062 C 301.796875 85.375 304.988281 71.542969 304.734375 71.183594 C 304.546875 70.929688 297.058594 83.367188 278.488281 97.691406 C 261.785156 110.59375 234.226562 123.53125 217.609375 133.898438 C 202.371094 143.40625 195.527344 154.847656 195.382812 154.613281 C 180.039062 130.011719 187.699219 90.753906 231.457031 75.085938 C 278.292969 58.328125 304.089844 65.328125 314.550781 42.351562 C 314.550781 42.351562 326.636719 95.84375 294.878906 134.355469 C 263.136719 172.871094 218.863281 183.570312 199.011719 159.640625 "/>
</g>
</g>
</g>
<g clip-path="url(#clip7)" clip-rule="nonzero">
<g clip-path="url(#clip8)" clip-rule="nonzero">
<g clip-path="url(#clip9)" clip-rule="nonzero">
<path style=" stroke:none;fill-rule:nonzero;fill:rgb(100%,89.7995%,12.939453%);fill-opacity:1;" d="M 215.359375 199.011719 C 215.628906 198.78125 226.929688 205.269531 236.183594 220.15625 C 247.089844 237.765625 261.074219 267.191406 275.085938 284.171875 C 289.625 301.796875 303.457031 304.988281 303.816406 304.734375 C 304.070312 304.546875 291.632812 297.058594 277.308594 278.488281 C 264.40625 261.785156 251.46875 234.226562 241.101562 217.609375 C 231.59375 202.371094 220.152344 195.527344 220.386719 195.382812 C 244.988281 180.039062 284.246094 187.699219 299.914062 231.457031 C 316.671875 278.292969 309.671875 304.089844 332.648438 314.550781 C 332.648438 314.550781 279.15625 326.636719 240.644531 294.878906 C 202.128906 263.136719 191.429688 218.863281 215.359375 199.011719 "/>
</g>
</g>
</g>
<g clip-path="url(#clip10)" clip-rule="nonzero">
<g clip-path="url(#clip11)" clip-rule="nonzero">
<g clip-path="url(#clip12)" clip-rule="nonzero">
<path style=" stroke:none;fill-rule:nonzero;fill:rgb(35.289001%,49.01886%,13.328552%);fill-opacity:1;" d="M 175.988281 215.359375 C 176.21875 215.628906 169.730469 226.929688 154.84375 236.183594 C 137.234375 247.089844 107.808594 261.074219 90.828125 275.085938 C 73.203125 289.625 70.011719 303.457031 70.265625 303.816406 C 70.453125 304.070312 77.941406 291.632812 96.511719 277.308594 C 113.214844 264.40625 140.773438 251.46875 157.390625 241.101562 C 172.628906 231.59375 179.472656 220.152344 179.617188 220.386719 C 194.960938 244.988281 187.300781 284.246094 143.542969 299.914062 C 96.707031 316.671875 70.910156 309.671875 60.449219 332.648438 C 60.449219 332.648438 48.363281 279.15625 80.121094 240.644531 C 111.863281 202.128906 156.136719 191.429688 175.988281 215.359375 "/>
</g>
</g>
</g>
</g>
</svg>
